<svg xmlns="http://www.w3.org/2000/svg" width="340" height="57" viewBox="0 0 340 57">
    <defs>
        <linearGradient id="a" x1=".13%" y1="50.026%" y2="50.026%">
            <stop offset="0%" stop-color="#892887"/>
            <stop offset="99%" stop-color="#FF2A77"/>
        </linearGradient>
        <linearGradient id="b" x1="29.885%" x2="70.198%" y1="92.18%" y2="7.719%">
            <stop offset="0%" stop-color="#892887"/>
            <stop offset="99%" stop-color="#FF2A77"/>
        </linearGradient>
    </defs>
    <g fill="none" fill-rule="nonzero">
        <path fill="#892887" d="M27.809 26.1a.393.393 0 1 1-.787 0 .393.393 0 0 1 .787 0zM28.045 29.837a5.192 5.192 0 0 1-.512-1.337v4.386a36.088 36.088 0 0 1 3.501 1.77c.02-.38.02-.761 0-1.141a7.867 7.867 0 0 0-.138-.944 7.454 7.454 0 0 1-.904-.472 5.762 5.762 0 0 1-1.947-2.262z"/>
        <path fill="#892887" d="M44.348 39.907A9.145 9.145 0 0 0 41.3 36.74a36.659 36.659 0 0 0-6.215-2.694 54.741 54.741 0 0 1-2.832-1.062v.374c.032.599-.008 1.2-.118 1.79a14.73 14.73 0 0 1 4.583 4.09c2.438 3.756 2.497 8.024.157 9.538-2.34 1.515-6.215-.314-8.634-4.07a3.304 3.304 0 0 1-.393-.689c.01.065.01.131 0 .197v2.576a9.302 9.302 0 0 1-.61 2.576 9.302 9.302 0 0 1-.61-2.576v-2.576-.197c-.104.24-.229.47-.373.688-2.439 3.757-6.313 5.586-8.634 4.071-2.32-1.514-2.281-5.782.138-9.538a15.025 15.025 0 0 1 4.602-4.09c-.11-.59-.15-1.191-.118-1.79-.01-.131-.01-.263 0-.394-.767.335-1.711.689-2.852 1.082a37.367 37.367 0 0 0-6.214 2.694 9.145 9.145 0 0 0-3.147 3.167 8.398 8.398 0 0 0-1.278 4.641 8.319 8.319 0 0 0 2.104 5.703 7.69 7.69 0 0 0 5.998 2.34 11.289 11.289 0 0 0 4.838-1.12 18.133 18.133 0 0 0 4.052-2.734c.083.788.268 1.561.55 2.301.217.593.487 1.166.807 1.711a8.594 8.594 0 0 0 .826-1.711 10.07 10.07 0 0 0 .55-2.301 17.7 17.7 0 0 0 4.032 2.734 11.426 11.426 0 0 0 4.838 1.12 7.67 7.67 0 0 0 5.998-2.34 8.22 8.22 0 0 0 2.105-5.703 8.398 8.398 0 0 0-1.102-4.641z"/>
        <path fill="#892887" d="M26.51 29.837a5.762 5.762 0 0 1-2.064 2.164l-.846.432a7.257 7.257 0 0 0-.138 2.085 32.017 32.017 0 0 1 3.501-1.77v-4.386a5.9 5.9 0 0 1-.452 1.475zM43.503 2.461a7.611 7.611 0 0 0-5.999-2.36c-1.676.022-3.328.411-4.838 1.141a16.894 16.894 0 0 0-3.933 2.714 9.145 9.145 0 0 0-.55-2.301 10.482 10.482 0 0 0-.807-1.711 8.752 8.752 0 0 0-.826 1.73A11.033 11.033 0 0 0 26 3.957a17.287 17.287 0 0 0-4.032-2.714A11.446 11.446 0 0 0 17.03.102a7.611 7.611 0 0 0-5.9 2.36 8.162 8.162 0 0 0-2.124 5.703 8.673 8.673 0 0 0 1.18 4.602 9.322 9.322 0 0 0 3.167 3.146 35.95 35.95 0 0 0 6.313 2.754 30.582 30.582 0 0 1 4.877 1.966 6.077 6.077 0 0 1 2.065 2.164c.249.458.434.947.55 1.455v-4.405c-1.592-.551-7.158-3.147-9.282-6.372-2.419-3.776-2.498-8.044-.177-9.558 2.32-1.515 6.215.314 8.634 4.07.14.221.265.451.373.689a.865.865 0 0 0 0-.197V5.903a10.07 10.07 0 0 1 .61-2.576c.322.827.534 1.693.63 2.576v2.773c.137-.236.255-.492.393-.688 2.419-3.757 6.293-5.586 8.633-4.071 2.34 1.514 2.282 5.782-.137 9.558-2.124 3.264-7.69 5.9-9.086 6.43v4.406c.108-.51.293-1.001.55-1.455a6.077 6.077 0 0 1 1.79-2.223 30.228 30.228 0 0 1 4.897-1.966 37.367 37.367 0 0 0 6.313-2.714 9.44 9.44 0 0 0 3.048-3.186 8.673 8.673 0 0 0 1.279-4.642 8.162 8.162 0 0 0-2.124-5.664z"/>
        <path fill="#892887" d="M29.775 15.618a3.186 3.186 0 0 1-2.753 3.481 3.166 3.166 0 0 1-2.753-3.48 3.186 3.186 0 0 1 2.753-3.501 3.186 3.186 0 0 1 2.753 3.5zM29.264 26.12h.924l.118-.334c-.34.135-.687.247-1.042.334zM29.913 26.75a.511.511 0 0 1 0-.177h-.747l.747.177zM49.6 27.694a8.948 8.948 0 0 0 2.3-.551c.6-.217 1.18-.486 1.731-.806a9.833 9.833 0 0 0-4.032-1.377 16.618 16.618 0 0 0 2.734-3.933 11.348 11.348 0 0 0 1.121-4.838 7.572 7.572 0 0 0-2.34-5.9 8.122 8.122 0 0 0-5.704-2.124 8.457 8.457 0 0 0-4.641 1.278 9.499 9.499 0 0 0-3.166 3.147 39.53 39.53 0 0 0-2.675 6.077 31.683 31.683 0 0 1-1.967 4.877 6.018 6.018 0 0 1-1.475 1.613 4.17 4.17 0 0 1-.118.963h2.38c.61-1.416 3.147-6.981 6.431-9.086 3.756-2.419 8.044-2.497 9.538-.157 1.495 2.34-.295 6.215-4.051 8.634-.218.15-.448.281-.688.393h2.773c.882.084 1.75.29 2.576.61a9.656 9.656 0 0 1-2.576.61h-2.773c.235.112.465.237.688.373 3.756 2.439 5.566 6.293 4.051 8.653-1.514 2.36-5.782 2.262-9.538-.157-3.284-2.104-5.9-7.67-6.431-9.086h-2.517c0 .197-.197.393-.295.61a5.9 5.9 0 0 1 1.966 1.966c.79 1.569 1.448 3.2 1.967 4.878a39.53 39.53 0 0 0 2.734 5.939 9.322 9.322 0 0 0 3.166 3.147 8.457 8.457 0 0 0 4.641 1.278 8.181 8.181 0 0 0 5.723-2.144 7.63 7.63 0 0 0 2.34-5.998 11.289 11.289 0 0 0-1.12-4.838 17.484 17.484 0 0 0-2.754-4.051zM24.288 25.845c.024.088.057.174.099.256h.767a6.333 6.333 0 0 1-.866-.256zM23.6 27.123a4.7 4.7 0 0 1-.256-.55H20.69c-.61 1.416-3.166 6.981-6.45 9.086-3.757 2.419-8.044 2.497-9.539.157-1.494-2.34.315-6.215 4.052-8.653a5.9 5.9 0 0 1 .708-.374H6.687a9.617 9.617 0 0 1-2.596-.61 9.617 9.617 0 0 1 2.596-.61H9.46a4.09 4.09 0 0 1-.708-.393c-3.737-2.419-5.566-6.293-4.052-8.633 1.515-2.34 5.782-2.262 9.539.157 3.284 2.104 5.9 7.67 6.45 9.086h2.498a4.484 4.484 0 0 1-.098-.865 5.605 5.605 0 0 1-1.633-1.711 31.683 31.683 0 0 1-1.966-4.878 36.088 36.088 0 0 0-2.675-5.92 9.322 9.322 0 0 0-3.166-3.146 8.457 8.457 0 0 0-4.642-1.278 8.142 8.142 0 0 0-5.703 2.124 7.572 7.572 0 0 0-2.34 5.9 11.348 11.348 0 0 0 1.12 4.838 16.618 16.618 0 0 0 2.734 3.933c-.784.1-1.556.284-2.3.55a9.833 9.833 0 0 0-1.712.827c.545.32 1.118.59 1.711.806.74.285 1.513.47 2.301.55a17.484 17.484 0 0 0-2.733 4.052 11.289 11.289 0 0 0-1.121 4.838 7.63 7.63 0 0 0 2.34 5.998 8.22 8.22 0 0 0 5.703 2.105 8.457 8.457 0 0 0 4.642-1.279 9.145 9.145 0 0 0 3.166-2.93 36.088 36.088 0 0 0 2.675-6.215 31.683 31.683 0 0 1 1.966-4.877 5.9 5.9 0 0 1 2.144-2.085zM25.154 26.533h-.59v.158z"/>
        <path fill="#892887" d="M29.638 27.202c.681-.814.89-1.924.55-2.93l-.177-.472a6.057 6.057 0 0 1-.472-1.692 6.608 6.608 0 0 0-1.494 1.77c-.25.457-.436.947-.551 1.456v-4.406c1.4-.614 2.76-1.317 4.071-2.104.04-.157-.098-.157-.098-.157a.767.767 0 0 0-.374.137 6.746 6.746 0 0 1-3.933 1.2h-.177a7.296 7.296 0 0 1-3.6-1.337.61.61 0 0 0-.334-.118s-.137.137-.196.334a33.532 33.532 0 0 0 4.13 2.124v4.405a6.411 6.411 0 0 0-.57-1.455 6.549 6.549 0 0 0-1.476-1.77 6.49 6.49 0 0 1-.491 1.672l-.177.491a3.048 3.048 0 0 0 .55 2.93c.492.728 0 1.672-.452 2.852a9.204 9.204 0 0 0-1.042 3.363 11.053 11.053 0 0 0 2.34 6.49c.452.708.924 1.456 1.357 2.282.072.122.125.255.157.393.093-.152.213-.286.354-.393.433-.826.885-1.554 1.338-2.282a11.072 11.072 0 0 0 2.36-6.49 9.597 9.597 0 0 0-1.043-3.363c-.688-1.258-1.042-2.202-.55-2.93zM89.955 40.103c.531-.53.826-.747 1.279-.747.57.01 1.032.471 1.042 1.042 0 .826-.452 1.416-1.2 2.38a12.036 12.036 0 0 1-9.105 4.936c-6.47 0-6.923-9.931-7.67-9.931a70.977 70.977 0 0 0-1.79 7.984c0 1.259-.452 1.574-1.573 1.574-2.242 0-5.212.373-6.412.373-.885 0-1.416-.373-1.416-1.652 0-6.49 6.569-22.144 6.569-33.256 0-2.458-1.278-3.658-2.832-3.658-.688 0-1.121-.295-1.121-.885 0-1.573 3.933-3.933 8.201-3.933 3.933 0 6.333 2.084 6.333 5.9 0 4.7-5.29 21.023-5.29 24.013a5.054 5.054 0 0 0 4.464-4.327c0-.826-.512-.983-.512-1.711 0-1.573 4.622-3.933 8.044-3.933 1.495 0 2.163.59 2.163 1.71 0 3.128-3.205 7.16-8.712 10.208.806 2.615 3.343 5.664 6.49 5.664a3.933 3.933 0 0 0 3.048-1.75z"/>
        <path fill="#892887" d="M113.162 47.714a5.998 5.998 0 0 1-5.743-3.933 14.691 14.691 0 0 1-9.4 3.933c-4.406 0-7.985-2.989-7.985-8.732 0-7.375 4.484-14.907 15.143-14.907 3.934 0 5.074 1.416 6.254 1.416 1.18 0 4.484-1.416 6.195-1.416a.983.983 0 0 1 1.121 1.121c0 1.79-2.615 7.591-2.615 13.413a2.714 2.714 0 0 0 2.537 3.048c1.278 0 1.868-.59 2.832-1.554.53-.53.826-.747 1.278-.747.571.01 1.032.471 1.042 1.042 0 .826-.452 1.416-1.2 2.38a12.174 12.174 0 0 1-9.459 4.936zm-7.316-20.374c-4.248 0-6.116 7.866-6.116 11.937 0 1.967.904 3.501 2.537 3.501 1.632 0 2.91-1.259 3.933-3.5a30.778 30.778 0 0 0 1.967-9.834 1.967 1.967 0 0 0-2.321-2.104z"/>
        <path fill="#892887" d="M126.732 40.3c0 1.868.669 3.147 1.967 3.147s1.652-.689 1.652-1.967c0-4.405-7.395-5.074-7.395-10.66 0-4.7 4.7-7.08 10.305-7.08 5.605 0 7.867 2.085 7.867 5.134a3.402 3.402 0 0 1-3.461 3.776 2.635 2.635 0 0 1-2.675-2.537c0-1.121.59-1.574.59-2.242 0-.669-.59-1.043-1.416-1.043a2.458 2.458 0 0 0-2.163 2.459c0 4.405 8.2 4.995 8.2 10.443 0 4.838-3.933 8.122-10.442 8.122-5.586 0-9.696-2.458-9.696-6.49a3.58 3.58 0 0 1 3.442-3.796c2.025 0 3.225.964 3.225 2.734zM165.81 47.714a6.038 6.038 0 0 1-5.743-3.933 14.691 14.691 0 0 1-9.4 3.933c-4.386 0-7.867-2.989-7.867-8.732 0-7.375 4.464-14.907 15.123-14.907 3.934 0 5.074 1.416 6.274 1.416 1.2 0 4.464-1.416 6.195-1.416a.983.983 0 0 1 1.101 1.121c0 1.79-2.596 7.591-2.596 13.413a2.694 2.694 0 0 0 2.537 3.048c1.259 0 1.849-.59 2.832-1.554.512-.53.807-.747 1.259-.747.571.01 1.032.471 1.042 1.042a3.933 3.933 0 0 1-1.18 2.38 12.174 12.174 0 0 1-9.577 4.936zm-7.316-20.374c-4.248 0-6.117 7.866-6.117 11.937 0 1.967.905 3.501 2.537 3.501 1.633 0 2.911-1.259 3.934-3.5a31.349 31.349 0 0 0 1.966-9.834 1.967 1.967 0 0 0-2.32-2.104z"/>
        <path fill="#892887" d="M207.424 41.972c0-4.563 2.38-7.533 2.38-10.443 0-1.416-.669-2.085-1.79-2.085-1.12 0-3.048 1.259-4.543 4.17a31.9 31.9 0 0 0-3.284 12.153c0 1.259-.452 1.574-1.554 1.574-2.32 0-5.231.373-6.49.373-.904 0-1.494-.373-1.494-1.652 0-4.405 2.753-11.249 2.753-14.396 0-1.337-.511-2.222-1.632-2.222s-3.442 1.416-5.232 4.543a33.728 33.728 0 0 0-3.205 11.8c0 1.259-.512 1.573-1.633 1.573-2.242 0-5.152.374-6.273.374-1.121 0-1.554-.374-1.554-1.652 0-2.753 3.127-12.823 3.127-16.854 0-1.259-.531-1.416-.531-2.38 0-1.632 3.933-2.753 8.358-2.753 1.652 0 2.537.668 2.537 1.966a17.523 17.523 0 0 1-.59 3.363 14.573 14.573 0 0 1 10.286-5.29 5.9 5.9 0 0 1 6.116 4.68 14.966 14.966 0 0 1 9.991-4.68c4.327 0 6.333 1.79 6.333 5.054 0 3.265-2.085 6.864-2.085 9.834 0 1.966 1.042 2.674 2.38 2.674 1.337 0 1.868-.59 2.851-1.553.512-.531.807-.748 1.259-.748.571.01 1.032.471 1.042 1.043 0 .826-.452 1.416-1.2 2.38a12.095 12.095 0 0 1-9.38 4.896c-4.327 0-6.943-2.615-6.943-5.742z"/>
        <path fill="#892887" d="M234.033 27.045a10.561 10.561 0 0 1 7.1-2.97c4.68 0 7.867 2.085 7.867 7.591 0 7.238-5.153 16.048-15.517 16.048-7.611 0-11.033-3.933-11.033-9.617 0-7.158 5.133-15.595 5.133-25.291 0-2.458-1.259-3.658-2.832-3.658-.748 0-1.121-.295-1.121-.885 0-1.573 3.933-3.933 8.22-3.933 3.934 0 6.333 2.084 6.333 5.9 0 3.815-3.54 13.393-4.15 16.815zm-.432 17.188c3.658 0 5.9-9.833 5.9-13.039 0-1.966-1.043-2.694-2.38-2.694s-2.694.826-3.5 3.363a37.701 37.701 0 0 0-1.967 9.833c-.138 1.456.53 2.537 1.947 2.537zM273.13 47.714a6.038 6.038 0 0 1-5.742-3.933 14.691 14.691 0 0 1-9.4 3.933c-4.386 0-7.966-2.989-7.966-8.732 0-7.375 4.465-14.907 15.124-14.907 3.933 0 5.074 1.416 6.274 1.416 1.2 0 4.464-1.416 6.195-1.416a.983.983 0 0 1 1.12 1.121c0 1.79-2.615 7.591-2.615 13.413a2.714 2.714 0 0 0 2.537 3.048c1.259 0 1.868-.59 2.832-1.554.511-.53.826-.747 1.259-.747.57.01 1.032.471 1.042 1.042a3.933 3.933 0 0 1-1.18 2.38 12.174 12.174 0 0 1-9.48 4.936zm-7.296-20.374c-4.267 0-6.116 7.866-6.116 11.937 0 1.967.885 3.501 2.537 3.501s2.891-1.259 3.933-3.5a31.349 31.349 0 0 0 1.967-9.834 1.967 1.967 0 0 0-2.32-2.104z"/>
        <path fill="#EE2A78" d="M289.1 52.1v3.933h-2.635V52.1l-4.386-7.296h2.773l3.048 5.054 3.029-5.054h2.576zM303.22 54.067v2.104h-8.79V44.784h8.574v2.104h-5.9v2.478h5.271v1.967h-5.408v2.734zM312.7 53.713h-5.27l-1.004 2.419h-2.694l5.074-11.348h2.596l5.231 11.348h-2.773l-1.16-2.42zm-.826-1.967l-1.79-4.346-1.809 4.346h3.599zM324.952 56.132l-2.183-3.167h-2.419v3.167h-2.615V44.784h4.897c3.048 0 4.936 1.573 4.936 4.13a3.697 3.697 0 0 1-2.34 3.58l2.556 3.638h-2.832zm-2.419-9.204h-2.143v3.933h2.143c1.613 0 2.42-.747 2.42-1.967 0-1.219-.846-1.966-2.42-1.966zM328.748 55.01l.905-1.966a6.687 6.687 0 0 0 3.736 1.18c1.554 0 2.183-.511 2.183-1.22 0-2.123-6.588-.668-6.588-4.877 0-1.966 1.554-3.54 4.779-3.54a7.749 7.749 0 0 1 3.933 1.003l-.806 1.967a6.372 6.372 0 0 0-3.147-.905c-1.553 0-2.143.59-2.143 1.298 0 2.105 6.588.65 6.588 4.819 0 1.966-1.573 3.52-4.818 3.52a8.044 8.044 0 0 1-4.622-1.278z"/>
        <path fill="url(#a)" d="M310.989 34.869v7.139h-28.576v-5.684l14.593-13.766c3.343-3.206 3.933-5.133 3.933-6.982 0-2.97-1.966-4.7-6.057-4.7a9.224 9.224 0 0 0-7.867 3.776l-6.372-4.091c2.911-4.287 8.201-7.04 15.026-7.04 8.417 0 14.042 4.326 14.042 11.19 0 3.677-1.023 7.02-6.313 11.937l-8.713 8.221h16.304z" transform="translate(0 -1)"/>
        <g fill="#000" opacity=".6">
            <path d="M310.989 33.869H306.8a15.733 15.733 0 0 0 4.13 5.113l.059-5.113zM308.57 8.715A22.105 22.105 0 0 0 304.4 22.6v1.967c4.406-4.386 5.291-7.533 5.291-10.955a10.58 10.58 0 0 0-1.121-4.897z"/>
        </g>
        <path fill="url(#b)" d="M307.095 23.6c0-12.488 6.923-19.568 16.225-19.568 9.302 0 16.205 7.08 16.205 19.666 0 12.587-6.863 19.569-16.205 19.569-9.342 0-16.225-7.159-16.225-19.667zm23.6 0c0-8.594-3.029-12.174-7.395-12.174s-7.355 3.58-7.355 12.174 3.029 12.154 7.355 12.154c4.327 0 7.415-3.54 7.415-12.154h-.02z" transform="translate(0 -1)"/>
    </g>
</svg>
